<svg xmlns="http://www.w3.org/2000/svg" version="1.1" xmlns:xlink="http://www.w3.org/1999/xlink" xmlns:svgjs="http://svgjs.com/svgjs" width="1140" height="750" preserveAspectRatio="none" viewBox="0 0 1140 750"><g mask="url(&quot;#SvgjsMask1190&quot;)" fill="none"><rect width="1140" height="750" x="0" y="0" fill="#0e2a47"></rect><path d="M0,447.27C82.369,447.021,134.693,360.427,197.037,306.595C250.536,260.4,308.105,218.395,338.799,154.724C369.884,90.242,374.027,18.225,370.519,-53.273C366.714,-130.824,374.432,-222.278,317.702,-275.29C260.81,-328.453,168.207,-297.275,92.049,-313.49C23.431,-328.1,-37.587,-372.636,-107.409,-365.802C-184.55,-358.252,-257.696,-324.961,-315.728,-273.579C-378.75,-217.779,-455.702,-148.195,-447.832,-64.389C-439.695,22.263,-326.643,54.764,-278.109,127.008C-240.579,182.873,-241.93,256.971,-197.803,307.787C-143.811,369.962,-82.346,447.519,0,447.27" fill="#0b2239"></path><path d="M1140 1223.226C1228.818 1236.145 1310.01 1179.714 1390.004 1139.013 1478.383 1094.046 1599.731 1068.223 1630.142 973.84 1661.088 877.796 1571.922 786.75 1533.58 693.412 1504.923 623.652 1483.458 552.1800000000001 1433.661 495.541 1384.121 439.194 1323.333 391.896 1250.993 371.992 1179.321 352.272 1106.561 375.227 1032.908 385.277 945.329 397.227 843.114 376.504 778.206 436.504 712.927 496.847 709.886 598.7760000000001 705.874 687.582 702.143 770.166 714.1469999999999 854.092 756.1220000000001 925.311 795.8389999999999 992.6990000000001 870.943 1024.546 932.739 1072.504 1001.619 1125.959 1053.719 1210.676 1140 1223.226" fill="#113255"></path></g><defs><mask id="SvgjsMask1190"><rect width="1140" height="750" fill="#ffffff"></rect></mask></defs></svg>